<svg width="60" height="56" viewBox="0 0 60 56" fill="none" xmlns="http://www.w3.org/2000/svg">
<path d="M38.1363 35.8711C40.1029 35.5387 41.6142 33.8175 41.6142 31.7571C41.6142 29.4641 39.7375 27.5866 37.4787 27.5866H32.9179C30.6258 27.5866 28.749 25.7089 28.749 23.4127C28.749 21.1198 30.6258 19.2423 32.9179 19.2423H41.6142" stroke="#2059AF" stroke-width="2" stroke-miterlimit="10" stroke-linecap="round" stroke-linejoin="round"/>
<path d="M10.4502 49.3725L19.6084 53.48C21.7808 54.2774 24.9996 54.3207 32.7195 54.3605C38.9511 54.3672 39.765 54.3672 40.9475 54.3672C43.8341 54.3672 44.9668 54.098 46.3255 52.7555C50.1289 49.2396 53.9324 45.7272 57.7392 42.2113C59.1908 40.8721 59.1908 38.6755 57.7392 37.3363C56.2876 35.9937 53.9092 35.9937 52.4575 37.3363L44.462 44.7202C43.8009 45.3317 42.4457 45.5044 40.9608 45.5011C37.2969 45.4912 31.4007 45.4812 27.7368 45.4745C26.1723 45.4745 24.8933 44.2949 24.8933 42.8493C24.8933 41.4038 26.1723 40.2207 27.7368 40.2207H35.3138C37.0777 40.2207 38.516 38.8915 38.516 37.2632C38.516 35.6382 37.0777 34.3056 35.3138 34.3056H16.7085C14.1441 34.3056 11.862 35.492 10.4502 37.303" stroke="#2059AF" stroke-width="2" stroke-miterlimit="10" stroke-linecap="round" stroke-linejoin="round"/>
<path d="M10.4496 51.2242V35.4561C10.4496 33.9209 9.09106 32.6614 7.42688 32.6614H4.19473C2.53043 32.6614 1.17188 33.9209 1.17188 35.4561V51.2242C1.17188 52.7596 2.53043 54.0156 4.19473 54.0156H7.42688C9.09106 54.0156 10.4496 52.7596 10.4496 51.2242Z" stroke="#2059AF" stroke-width="2" stroke-miterlimit="10" stroke-linecap="round" stroke-linejoin="round"/>
<path d="M48.0117 11.6971L48.0143 11.7012" stroke="#2059AF" stroke-width="2" stroke-miterlimit="10" stroke-linecap="round" stroke-linejoin="round"/>
<path d="M17.495 22.4255C15.1763 21.0398 13.2896 18.6971 11.8346 15.9854C10.3698 13.2537 9.57581 10.3693 9.59913 7.64773C9.60909 6.44152 9.88144 6.30851 10.8813 5.77015L18.5479 1.63285L26.2147 5.77015C27.2145 6.30851 27.4836 6.44152 27.4935 7.64773C27.5201 10.3693 26.7229 13.2537 25.258 15.9854C23.8031 18.6971 21.9195 21.0398 19.601 22.4255C18.6709 22.9805 18.4217 22.9805 17.495 22.4255Z" stroke="#2059AF" stroke-width="2" stroke-miterlimit="10" stroke-linecap="round" stroke-linejoin="round"/>
<path d="M15.9136 34.3457C15.1728 32.2289 14.7676 29.9559 14.7676 27.5864C14.7676 25.3466 15.1263 23.1933 15.7939 21.1795M51.646 15.507C54.1307 18.8898 55.5956 23.067 55.5956 27.5864C55.5956 30.8498 54.8282 33.937 53.4663 36.6719M27.4667 8.67461C29.8452 7.70102 32.4527 7.16266 35.1833 7.16266C38.1296 7.16266 40.9332 7.78738 43.4645 8.91391" stroke="#2059AF" stroke-width="2" stroke-miterlimit="10" stroke-linecap="round" stroke-linejoin="round"/>
<path d="M16.0176 11.9536L18.0306 13.8379L22.2027 9.55773" stroke="#2059AF" stroke-width="2" stroke-miterlimit="10" stroke-linecap="round" stroke-linejoin="round"/>
</svg>
